<?xml version="1.0" standalone="no"?>
<!DOCTYPE svg PUBLIC "-//W3C//DTD SVG 20010904//EN"
 "http://www.w3.org/TR/2001/REC-SVG-20010904/DTD/svg10.dtd">
<svg version="1.0" xmlns="http://www.w3.org/2000/svg"
 width="500.000000pt" height="500.000000pt" viewBox="0 0 500.000000 500.000000"
 preserveAspectRatio="xMidYMid meet">

<g transform="translate(0.000000,500.000000) scale(0.100000,-0.100000)"
fill="#000000" stroke="none">
<path d="M2460 4445 c-167 -45 -343 -179 -413 -312 -71 -137 -98 -281 -78
-412 14 -88 61 -258 220 -786 66 -220 158 -534 205 -698 108 -372 326 -1100
332 -1106 2 -2 4 29 4 70 0 95 16 160 85 350 31 84 56 167 56 184 1 16 -76
286 -171 600 -140 465 -253 850 -287 980 -5 19 -4 19 11 4 10 -9 28 -52 41
-95 13 -44 62 -205 108 -359 86 -286 93 -311 193 -660 31 -110 67 -233 80
-273 13 -40 29 -92 35 -115 7 -24 14 -36 17 -27 7 21 110 298 127 340 80 199
257 692 257 715 0 17 -8 50 -16 74 -16 42 -15 45 4 66 27 29 25 43 -2 19 l-23
-19 19 23 c11 12 20 33 21 46 0 14 8 33 18 44 10 10 15 26 12 34 -3 8 3 23 15
33 11 10 20 26 20 35 0 9 9 25 20 35 14 13 17 22 10 36 -8 13 -4 25 15 47 32
39 32 52 0 22 -32 -30 -33 -14 0 20 l24 25 -48 182 -47 182 -131 138 c-135
142 -173 180 -173 171 0 -3 13 -34 30 -69 132 -285 -44 -608 -358 -660 -97
-16 -188 0 -292 52 -96 48 -159 113 -208 217 -36 76 -37 79 -37 197 0 118 1
121 38 199 115 241 397 341 640 227 31 -15 57 -27 57 -27 0 1 -15 53 -34 116
-33 115 -33 115 -72 129 -57 21 -256 24 -324 6z"/>
<path d="M4759 3943 c10 -21 24 -57 31 -80 l13 -42 19 25 19 24 -46 55 c-26
30 -49 55 -51 55 -3 0 4 -17 15 -37z"/>
<path d="M4150 3264 c45 -44 89 -83 97 -88 11 -6 27 4 59 35 l44 43 -74 13
c-62 10 -111 28 -200 71 -4 3 29 -31 74 -74z"/>
<path d="M285 1724 c-110 -73 -204 -200 -250 -335 -23 -70 -28 -102 -28 -189
-1 -191 56 -333 188 -466 87 -88 166 -137 280 -176 l70 -23 1380 -2 c1368 -2
1379 -2 1309 17 -134 35 -228 96 -687 439 -679 511 -864 647 -962 713 l-70 48
-595 0 -595 0 -40 -26z m515 -75 c215 -49 372 -292 339 -526 -34 -248 -280
-431 -527 -393 -80 13 -191 63 -248 114 -171 148 -207 414 -83 608 109 169
307 245 519 197z"/>
<path d="M3831 1425 c17 -36 36 -99 43 -141 l11 -76 44 51 43 52 -82 89 c-45
50 -84 90 -86 90 -1 0 11 -29 27 -65z"/>
<path d="M3250 730 c58 -55 108 -99 112 -97 4 1 30 29 57 62 l50 60 -87 6
c-84 6 -132 19 -203 53 -24 12 -4 -12 71 -84z"/>
<path d="M1745 130 c0 -56 3 -70 15 -70 12 0 14 13 12 70 -5 96 -27 96 -27 0z"/>
<path d="M2226 191 c-4 -5 -2 -12 3 -15 5 -4 12 -2 15 3 4 5 2 12 -3 15 -5 4
-12 2 -15 -3z"/>
<path d="M2535 130 c0 -56 3 -70 15 -70 11 0 15 11 15 37 0 27 4 38 15 38 11
0 15 -11 15 -38 0 -28 4 -37 17 -37 10 0 15 6 13 17 -15 75 -15 75 -40 70 -22
-4 -25 -1 -25 24 0 17 -5 29 -12 29 -9 0 -13 -21 -13 -70z"/>
<path d="M2758 193 c8 -3 12 -27 12 -69 0 -63 0 -64 28 -64 34 0 52 16 52 46
0 28 -24 48 -50 41 -17 -4 -20 0 -20 24 0 21 -5 29 -17 28 -11 0 -13 -3 -5 -6z
m67 -88 c0 -23 -4 -30 -20 -30 -21 0 -31 25 -21 51 11 28 41 12 41 -21z"/>
<path d="M3030 190 c0 -5 5 -10 10 -10 6 0 10 5 10 10 0 6 -4 10 -10 10 -5 0
-10 -4 -10 -10z"/>
<path d="M3148 193 c8 -3 12 -26 12 -63 0 -58 0 -59 -27 -57 -24 2 -28 7 -31
35 -3 25 1 32 15 33 14 0 12 3 -6 10 -16 6 -28 6 -35 -1 -7 -7 -6 -10 1 -10 7
0 13 -17 15 -37 l3 -38 50 -2 c31 -2 45 0 37 6 -22 13 -11 66 13 66 16 0 20
-7 20 -38 0 -30 4 -37 20 -37 13 0 16 3 8 8 -6 4 -13 23 -15 42 -3 31 -6 35
-30 35 -24 -1 -28 3 -28 27 0 20 -5 28 -17 27 -11 0 -13 -3 -5 -6z"/>
<path d="M3378 134 c4 -70 13 -81 57 -70 51 13 39 93 -12 83 -20 -4 -23 0 -23
24 0 17 -5 29 -12 29 -10 0 -12 -18 -10 -66z m60 -3 c22 -13 11 -56 -15 -59
-19 -3 -23 1 -23 26 0 40 12 50 38 33z"/>
<path d="M3545 190 c-3 -5 -1 -10 4 -10 6 0 11 5 11 10 0 6 -2 10 -4 10 -3 0
-8 -4 -11 -10z"/>
<path d="M2394 159 c-5 -8 -7 -23 -6 -34 7 -54 13 -65 35 -65 20 1 20 2 5 11
-11 6 -18 22 -18 39 0 22 5 30 18 31 13 0 14 2 2 6 -8 3 -18 10 -21 16 -4 5
-10 3 -15 -4z"/>
<path d="M1335 138 c-2 -7 -3 -29 -1 -48 1 -19 -1 -40 -6 -46 -15 -20 20 -39
50 -28 36 13 37 48 1 52 -22 3 -26 8 -27 38 -1 25 3 34 14 34 12 0 15 -7 11
-25 -6 -34 15 -27 24 8 7 25 5 27 -27 27 -19 0 -37 -6 -39 -12z m53 -95 c5
-17 -26 -29 -40 -15 -6 6 -7 15 -3 22 9 14 37 9 43 -7z"/>
<path d="M1440 136 c-28 -35 11 -93 48 -70 21 14 28 64 10 75 -20 13 -44 11
-58 -5z m53 -17 c7 -27 -1 -49 -19 -49 -18 0 -33 28 -27 51 7 26 39 24 46 -2z"/>
<path d="M1539 129 c-16 -30 3 -69 34 -69 29 0 47 17 47 45 0 45 -60 63 -81
24z m56 -24 c0 -23 -4 -30 -20 -30 -21 0 -31 25 -21 51 11 28 41 12 41 -21z"/>
<path d="M1651 137 c-6 -7 -9 -29 -6 -47 2 -19 -1 -40 -6 -46 -17 -20 27 -39
58 -25 32 15 27 45 -8 49 -22 3 -26 8 -27 38 -1 23 3 34 13 34 21 0 28 -19 13
-37 -11 -14 -11 -15 2 -11 8 2 17 13 19 24 2 10 8 22 15 26 6 4 -5 8 -25 8
-20 0 -41 -6 -48 -13z m52 -92 c-1 -5 -8 -14 -17 -20 -18 -11 -42 7 -31 25 8
13 51 9 48 -5z"/>
<path d="M1812 138 c-15 -15 -16 -50 0 -66 14 -14 44 -16 52 -4 3 5 -5 8 -17
8 -13 -1 -23 6 -25 17 -3 13 3 17 23 17 20 0 26 4 23 18 -4 21 -39 27 -56 10z
m43 -8 c3 -5 -3 -10 -14 -10 -12 0 -21 5 -21 10 0 6 6 10 14 10 8 0 18 -4 21
-10z"/>
<path d="M1974 138 c-4 -6 5 -21 21 -34 32 -25 27 -46 -5 -26 -17 10 -20 10
-20 -3 0 -21 49 -20 57 2 4 11 -1 22 -15 31 -28 18 -29 36 -2 29 11 -3 20 -1
20 4 0 13 -48 11 -56 -3z"/>
<path d="M2066 134 c-19 -18 -21 -45 -4 -62 15 -15 54 -16 63 -2 4 6 -3 9 -16
7 -25 -2 -45 23 -35 48 4 13 13 15 32 11 17 -5 23 -3 19 4 -9 15 -41 12 -59
-6z"/>
<path d="M2145 104 c0 -40 2 -44 25 -43 14 0 19 3 13 6 -19 7 -17 63 2 63 28
0 15 17 -13 18 -26 0 -27 -2 -27 -44z"/>
<path d="M2227 114 c4 -25 2 -39 -8 -45 -10 -6 -5 -9 16 -8 17 0 24 3 18 6 -8
2 -13 22 -13 44 0 21 -4 39 -9 39 -6 0 -7 -16 -4 -36z"/>
<path d="M2275 79 c0 -57 3 -69 16 -69 12 0 15 7 11 25 -3 20 0 25 16 25 28 0
53 36 43 64 -6 16 -18 21 -47 23 l-39 2 0 -70z m65 46 c16 -19 3 -55 -21 -55
-14 0 -19 7 -19 28 0 43 17 54 40 27z"/>
<path d="M2656 118 c9 -55 12 -57 46 -56 33 1 33 2 29 45 -1 23 -8 43 -13 43
-6 0 -8 -12 -5 -29 4 -19 1 -33 -8 -41 -21 -17 -35 -3 -35 36 0 19 -4 34 -10
34 -5 0 -7 -14 -4 -32z"/>
<path d="M2934 138 c-4 -7 -9 -36 -9 -65 -2 -49 0 -54 22 -59 31 -8 68 22 52
43 -6 7 -22 13 -35 13 -13 0 -24 5 -24 10 0 6 6 10 13 10 8 0 8 3 -2 9 -17 11
-7 45 12 38 6 -2 12 -14 11 -26 0 -11 3 -21 8 -21 8 0 10 6 12 33 1 6 6 15 11
19 6 4 -7 8 -27 8 -20 0 -40 -5 -44 -12z m54 -95 c4 -16 -22 -27 -43 -19 -22
8 -6 38 18 34 11 -2 22 -9 25 -15z"/>
<path d="M3025 105 c0 -33 4 -45 15 -45 12 0 14 10 12 45 -5 60 -28 60 -27 0z"/>
<path d="M3263 133 c3 -10 8 -30 11 -45 5 -23 11 -27 44 -26 l37 0 -4 44 c-4
56 -29 61 -27 7 1 -28 -3 -38 -14 -38 -10 0 -16 12 -18 38 -2 25 -8 37 -18 37
-10 0 -14 -6 -11 -17z"/>
<path d="M3543 123 c3 -15 1 -36 -4 -45 -8 -14 -6 -18 8 -18 15 0 18 7 15 45
-2 25 -9 45 -14 45 -6 0 -8 -12 -5 -27z"/>
<path d="M3602 138 c-7 -7 -12 -21 -12 -33 0 -47 62 -63 81 -21 22 47 -33 90
-69 54z m54 -24 c8 -29 -7 -49 -30 -41 -16 6 -22 48 -9 60 14 15 33 6 39 -19z"/>
<path d="M1908 103 c6 -2 18 -2 25 0 6 3 1 5 -13 5 -14 0 -19 -2 -12 -5z"/>
<path d="M2473 103 c9 -2 23 -2 30 0 6 3 -1 5 -18 5 -16 0 -22 -2 -12 -5z"/>
<path d="M2870 70 c0 -5 7 -10 15 -10 8 0 15 5 15 10 0 6 -7 10 -15 10 -8 0
-15 -4 -15 -10z"/>
<path d="M3490 70 c0 -5 5 -10 10 -10 6 0 10 5 10 10 0 6 -4 10 -10 10 -5 0
-10 -4 -10 -10z"/>
</g>
</svg>
